<?xml version="1.0" encoding="UTF-8" standalone="no"?>
<!DOCTYPE svg PUBLIC "-//W3C//DTD SVG 1.1//EN" "http://www.w3.org/Graphics/SVG/1.1/DTD/svg11.dtd">
<svg width="100%" height="100%" viewBox="0 0 2875 4500" version="1.1" xmlns="http://www.w3.org/2000/svg" xmlns:xlink="http://www.w3.org/1999/xlink" xml:space="preserve" xmlns:serif="http://www.serif.com/" style="fill-rule:evenodd;clip-rule:evenodd;stroke-linejoin:round;stroke-miterlimit:2;">
    <g id="Layer-1" serif:id="Layer 1" transform="matrix(8.33333,0,0,8.33333,0,0)">
        <rect x="128.462" y="0" width="216.469" height="540" style="fill:rgb(255,243,186);"/>
        <rect x="0" y="0" width="128.462" height="540" style="fill:rgb(255,31,1);"/>
        <g>
            <g transform="matrix(0.730001,0,0,1,37.926,0)">
                <text x="140.467px" y="95.944px" style="font-family:'Helvetica-Bold', 'Helvetica';font-weight:700;font-size:27.074px;">S</text>
            </g>
            <g transform="matrix(0.730001,0,0,1,41.2209,0)">
                <text x="152.671px" y="95.944px" style="font-family:'Helvetica-Bold', 'Helvetica';font-weight:700;font-size:27.074px;">i</text>
            </g>
            <g transform="matrix(0.730001,0,0,1,42.3858,0)">
                <text x="156.985px" y="95.944px" style="font-family:'Helvetica-Bold', 'Helvetica';font-weight:700;font-size:27.074px;">m</text>
            </g>
            <g transform="matrix(0.730001,0,0,1,46.8408,0)">
                <text x="173.485px" y="95.944px" style="font-family:'Helvetica-Bold', 'Helvetica';font-weight:700;font-size:27.074px;">o</text>
            </g>
            <g transform="matrix(0.730001,0,0,1,49.8897,0)">
                <text x="184.777px" y="95.944px" style="font-family:'Helvetica-Bold', 'Helvetica';font-weight:700;font-size:27.074px;">n</text>
            </g>
            <g transform="matrix(0.730001,0,0,1,54.0013,0)">
                <text x="200.006px" y="95.944px" style="font-family:'Helvetica-Bold', 'Helvetica';font-weight:700;font-size:27.074px;">L</text>
            </g>
            <g transform="matrix(0.730001,0,0,1,57.0214,0)">
                <text x="211.191px" y="95.944px" style="font-family:'Helvetica-Bold', 'Helvetica';font-weight:700;font-size:27.074px;">.</text>
            </g>
            <g transform="matrix(0.730001,0,0,1,59.3886,0)">
                <text x="219.959px" y="95.944px" style="font-family:'Helvetica-Bold', 'Helvetica';font-weight:700;font-size:27.074px;">P</text>
            </g>
            <g transform="matrix(0.730001,0,0,1,62.659,0)">
                <text x="232.071px" y="95.944px" style="font-family:'Helvetica-Bold', 'Helvetica';font-weight:700;font-size:27.074px;">e</text>
            </g>
            <g transform="matrix(0.730001,0,0,1,65.3082,0)">
                <text x="241.883px" y="95.944px" style="font-family:'Helvetica-Bold', 'Helvetica';font-weight:700;font-size:27.074px;">y</text>
            </g>
            <g transform="matrix(0.730001,0,0,1,67.9861,0)">
                <text x="251.802px" y="95.944px" style="font-family:'Helvetica-Bold', 'Helvetica';font-weight:700;font-size:27.074px;">t<tspan x="259.747px " y="95.944px ">o</tspan></text>
            </g>
            <g transform="matrix(0.730001,0,0,1,72.6007,0)">
                <text x="268.893px" y="95.944px" style="font-family:'Helvetica-Bold', 'Helvetica';font-weight:700;font-size:27.074px;">n</text>
            </g>
            <g transform="matrix(0.730001,0,0,1,76.7111,0)">
                <text x="284.117px" y="95.944px" style="font-family:'Helvetica-Bold', 'Helvetica';font-weight:700;font-size:27.074px;">J</text>
            </g>
            <g transform="matrix(0.730001,0,0,1,79.3897,0)">
                <text x="294.037px" y="95.944px" style="font-family:'Helvetica-Bold', 'Helvetica';font-weight:700;font-size:27.074px;">o<tspan x="309.386px 324.734px 338.602px " y="95.944px 95.944px 95.944px ">nes</tspan></text>
            </g>
            <g transform="matrix(0.810001,0,0,1,26.811,0)">
                <text x="141.111px" y="125.542px" style="font-family:'SFPro-Black', 'SF Pro';font-size:30px;">T</text>
            </g>
            <g transform="matrix(0.810001,0,0,1,29.6784,0)">
                <text x="156.203px" y="125.542px" style="font-family:'SFPro-Black', 'SF Pro';font-size:30px;">h</text>
            </g>
            <g transform="matrix(0.810001,0,0,1,32.5827,0)">
                <text x="171.489px" y="125.542px" style="font-family:'SFPro-Black', 'SF Pro';font-size:30px;">e</text>
            </g>
            <g transform="matrix(0.810001,0,0,1,26.9091,0)">
                <text x="141.627px" y="154.872px" style="font-family:'SFPro-Black', 'SF Pro';font-size:30px;">I</text>
            </g>
            <g transform="matrix(0.810001,0,0,1,28.2231,0)">
                <text x="148.543px" y="154.872px" style="font-family:'SFPro-Black', 'SF Pro';font-size:30px;">m<tspan x="175.64px 195.12px " y="154.872px 154.872px ">pl</tspan></text>
            </g>
            <g transform="matrix(0.810001,0,0,1,36.7952,0)">
                <text x="193.66px" y="154.872px" style="font-family:'SFPro-Black', 'SF Pro';font-size:30px;">e</text>
            </g>
            <g transform="matrix(0.810001,0,0,1,39.5294,0)">
                <text x="208.051px" y="154.872px" style="font-family:'SFPro-Black', 'SF Pro';font-size:30px;">m</text>
            </g>
            <g transform="matrix(0.810001,0,0,1,43.838,0)">
                <text x="230.728px" y="154.872px" style="font-family:'SFPro-Black', 'SF Pro';font-size:30px;">e</text>
            </g>
            <g transform="matrix(0.810001,0,0,1,46.6646,0)">
                <text x="245.605px" y="154.872px" style="font-family:'SFPro-Black', 'SF Pro';font-size:30px;">n</text>
            </g>
            <g transform="matrix(0.810001,0,0,1,49.4203,0)">
                <text x="260.108px" y="154.872px" style="font-family:'SFPro-Black', 'SF Pro';font-size:30px;">t</text>
            </g>
            <g transform="matrix(0.810001,0,0,1,51.2729,0)">
                <text x="269.859px" y="154.872px" style="font-family:'SFPro-Black', 'SF Pro';font-size:30px;">ɑ</text>
            </g>
            <g transform="matrix(0.810001,0,0,1,54.0602,0)">
                <text x="284.529px" y="154.872px" style="font-family:'SFPro-Black', 'SF Pro';font-size:30px;">t</text>
            </g>
            <g transform="matrix(0.809998,0,0,1,55.9139,0)">
                <text x="294.28px" y="154.859px" style="font-family:'SFPro-Black', 'SF Pro';font-size:30px;">i</text>
            </g>
            <g transform="matrix(0.810001,0,0,1,57.2798,0)">
                <text x="301.474px" y="154.859px" style="font-family:'SFPro-Black', 'SF Pro';font-size:30px;">o</text>
            </g>
            <g transform="matrix(0.810001,0,0,1,60.0073,0)">
                <text x="315.83px" y="154.859px" style="font-family:'SFPro-Black', 'SF Pro';font-size:30px;">n</text>
            </g>
            <g transform="matrix(0.810001,0,0,1,26.7842,0)">
                <text x="140.97px" y="184.202px" style="font-family:'SFPro-Black', 'SF Pro';font-size:30px;">o</text>
            </g>
            <g transform="matrix(0.810001,0,0,1,29.3732,0)">
                <text x="154.597px" y="184.202px" style="font-family:'SFPro-Black', 'SF Pro';font-size:30px;">f</text>
            </g>
            <g transform="matrix(0.810001,0,0,1,32.0682,0)">
                <text x="168.781px" y="184.202px" style="font-family:'SFPro-Black', 'SF Pro';font-size:30px;">F<tspan x="187.016px " y="184.202px ">u</tspan></text>
            </g>
            <g transform="matrix(0.810001,0,0,1,37.6764,0)">
                <text x="198.298px" y="184.202px" style="font-family:'SFPro-Black', 'SF Pro';font-size:30px;">n</text>
            </g>
            <g transform="matrix(0.810001,0,0,1,40.6167,0)">
                <text x="213.774px" y="184.202px" style="font-family:'SFPro-Black', 'SF Pro';font-size:30px;">c</text>
            </g>
            <g transform="matrix(0.810001,0,0,1,43.3453,0)">
                <text x="228.134px" y="184.202px" style="font-family:'SFPro-Black', 'SF Pro';font-size:30px;">t</text>
            </g>
            <g transform="matrix(0.809998,0,0,1,45.1987,0)">
                <text x="237.885px" y="184.188px" style="font-family:'SFPro-Black', 'SF Pro';font-size:30px;">i</text>
            </g>
            <g transform="matrix(0.810001,0,0,1,46.5186,0)">
                <text x="244.836px" y="184.188px" style="font-family:'SFPro-Black', 'SF Pro';font-size:30px;">o</text>
            </g>
            <g transform="matrix(0.810001,0,0,1,49.2462,0)">
                <text x="259.192px" y="184.188px" style="font-family:'SFPro-Black', 'SF Pro';font-size:30px;">n</text>
            </g>
            <g transform="matrix(0.810001,0,0,1,52.1403,0)">
                <text x="274.424px" y="184.188px" style="font-family:'SFPro-Black', 'SF Pro';font-size:30px;">ɑ</text>
            </g>
            <g transform="matrix(0.810001,0,0,1,54.9738,0)">
                <text x="289.338px" y="184.188px" style="font-family:'SFPro-Black', 'SF Pro';font-size:30px;">l</text>
            </g>
            <g transform="matrix(0.810001,0,0,1,26.7868,0)">
                <text x="140.984px" y="213.533px" style="font-family:'SFPro-Black', 'SF Pro';font-size:30px;">P</text>
            </g>
            <g transform="matrix(0.810001,0,0,1,29.8231,0)">
                <text x="156.964px" y="213.533px" style="font-family:'SFPro-Black', 'SF Pro';font-size:30px;">r</text>
            </g>
            <g transform="matrix(0.810001,0,0,1,31.7073,0)">
                <text x="166.881px" y="213.533px" style="font-family:'SFPro-Black', 'SF Pro';font-size:30px;">o<tspan x="184.604px " y="213.533px ">g</tspan></text>
            </g>
            <g transform="matrix(0.810001,0,0,1,37.2458,0)">
                <text x="196.031px" y="213.533px" style="font-family:'SFPro-Black', 'SF Pro';font-size:30px;">r</text>
            </g>
            <g transform="matrix(0.810001,0,0,1,39.13,0)">
                <text x="205.948px" y="213.533px" style="font-family:'SFPro-Black', 'SF Pro';font-size:30px;">ɑ</text>
            </g>
            <g transform="matrix(0.810001,0,0,1,41.9173,0)">
                <text x="220.619px" y="213.533px" style="font-family:'SFPro-Black', 'SF Pro';font-size:30px;">m</text>
            </g>
            <g transform="matrix(0.810001,0,0,1,46.0875,0)">
                <text x="242.567px" y="213.533px" style="font-family:'SFPro-Black', 'SF Pro';font-size:30px;">m</text>
            </g>
            <g transform="matrix(0.809998,0,0,1,50.4893,0)">
                <text x="265.73px" y="213.519px" style="font-family:'SFPro-Black', 'SF Pro';font-size:30px;">i</text>
            </g>
            <g transform="matrix(0.810001,0,0,1,51.8092,0)">
                <text x="272.681px" y="213.519px" style="font-family:'SFPro-Black', 'SF Pro';font-size:30px;">n<tspan x="291.487px " y="213.519px ">g</tspan></text>
            </g>
            <g transform="matrix(0.810001,0,0,1,26.9085,0)">
                <text x="141.624px" y="242.877px" style="font-family:'SFPro-Black', 'SF Pro';font-size:30px;">L</text>
            </g>
            <g transform="matrix(0.810001,0,0,1,29.6067,0)">
                <text x="155.826px" y="242.877px" style="font-family:'SFPro-Black', 'SF Pro';font-size:30px;">ɑ</text>
            </g>
            <g transform="matrix(0.810001,0,0,1,32.3478,0)">
                <text x="170.253px" y="242.877px" style="font-family:'SFPro-Black', 'SF Pro';font-size:30px;">n</text>
            </g>
            <g transform="matrix(0.810001,0,0,1,35.242,0)">
                <text x="185.485px" y="242.877px" style="font-family:'SFPro-Black', 'SF Pro';font-size:30px;">g</text>
            </g>
            <g transform="matrix(0.810001,0,0,1,38.0068,0)">
                <text x="200.037px" y="242.877px" style="font-family:'SFPro-Black', 'SF Pro';font-size:30px;">u</text>
            </g>
            <g transform="matrix(0.810001,0,0,1,40.8086,0)">
                <text x="214.784px" y="242.877px" style="font-family:'SFPro-Black', 'SF Pro';font-size:30px;">ɑ</text>
            </g>
            <g transform="matrix(0.810001,0,0,1,43.6421,0)">
                <text x="229.697px" y="242.877px" style="font-family:'SFPro-Black', 'SF Pro';font-size:30px;">g</text>
            </g>
            <g transform="matrix(0.810001,0,0,1,46.4993,0)">
                <text x="244.734px" y="242.877px" style="font-family:'SFPro-Black', 'SF Pro';font-size:30px;">e</text>
            </g>
            <g transform="matrix(0.810001,0,0,1,49.3258,0)">
                <text x="259.611px" y="242.877px" style="font-family:'SFPro-Black', 'SF Pro';font-size:30px;">s</text>
            </g>
        </g>
        <g>
            <text x="143.966px" y="516.027px" style="font-family:'HelveticaNeue-Medium', 'Helvetica Neue', sans-serif;font-weight:500;font-size:10.314px;">C.A.R.</text>
            <text x="176.404px" y="516.027px" style="font-family:'HelveticaNeue-Medium', 'Helvetica Neue', sans-serif;font-weight:500;font-size:10.314px;">HOARE	<tspan x="222.766px " y="516.027px ">S</tspan>ERI</text>
            <text x="246.076px" y="516.027px" style="font-family:'HelveticaNeue-Medium', 'Helvetica Neue', sans-serif;font-weight:500;font-size:10.314px;">E</text>
            <text x="252.78px" y="516.027px" style="font-family:'HelveticaNeue-Medium', 'Helvetica Neue', sans-serif;font-weight:500;font-size:10.314px;">S</text>
            <text x="261.712px" y="516.027px" style="font-family:'HelveticaNeue-Medium', 'Helvetica Neue', sans-serif;font-weight:500;font-size:10.314px;">EDITOR</text>
        </g>
        <g>
            <text x="40.362px" y="477.649px" style="font-family:'HelveticaNeue-Medium', 'Helvetica Neue', sans-serif;font-weight:500;font-size:10.314px;">PRENTICE-HALL</text>
            <text x="39.97px" y="487.313px" style="font-family:'HelveticaNeue-Medium', 'Helvetica Neue', sans-serif;font-weight:500;font-size:10.314px;">INTERNAT<tspan x="90.602px " y="487.313px ">I</tspan>ONAL</text>
            <text x="71.882px" y="496.988px" style="font-family:'HelveticaNeue-Medium', 'Helvetica Neue', sans-serif;font-weight:500;font-size:10.314px;">SERIES IN</text>
            <text x="62.898px" y="506.652px" style="font-family:'HelveticaNeue-Medium', 'Helvetica Neue', sans-serif;font-weight:500;font-size:10.314px;">COMPUTER</text>
            <text x="76.667px" y="516.326px" style="font-family:'HelveticaNeue-Medium', 'Helvetica Neue', sans-serif;font-weight:500;font-size:10.314px;">SCIENCE</text>
        </g>
    </g>
</svg>
